<svg width="18" height="18" viewBox="0 0 18 18" fill="none" xmlns="http://www.w3.org/2000/svg">
<path d="M3.6967 6.375C2.33947 7.6875 1.5 9 1.5 9C1.5 9 4.85786 14.25 9 14.25C9.51371 14.25 10.0153 14.1692 10.5 14.0278M7.51192 3.96875C7.9929 3.82945 8.49052 3.75 9 3.75C13.1421 3.75 16.5 9 16.5 9C16.5 9 15.6605 10.3125 14.3033 11.625" stroke="#8C9399" stroke-linecap="round" stroke-linejoin="round"/>
<path d="M7.71157 7.42871C7.40554 7.76239 7.21875 8.20725 7.21875 8.69572C7.21875 9.73125 8.05823 10.5707 9.09375 10.5707C9.60476 10.5707 10.068 10.3663 10.4062 10.0347" stroke="#8C9399" stroke-linecap="round" stroke-linejoin="round"/>
<path d="M15.75 15.3584L2.25 1.8584" stroke="#8C9399" stroke-linecap="round" stroke-linejoin="round"/>
</svg>
