<svg id="visual" viewBox="0 0 1512 982" width="1512" height="982" xmlns="http://www.w3.org/2000/svg" xmlns:xlink="http://www.w3.org/1999/xlink" version="1.1"><rect x="0" y="0" width="1512" height="982" fill="#f4f7f9"></rect><defs><linearGradient id="grad1_0" x1="35.1%" y1="0%" x2="100%" y2="100%"><stop offset="19.20570264765784%" stop-color="#f4f7f9" stop-opacity="1"></stop><stop offset="80.79429735234216%" stop-color="#f4f7f9" stop-opacity="1"></stop></linearGradient></defs><defs><linearGradient id="grad2_0" x1="0%" y1="0%" x2="64.9%" y2="100%"><stop offset="19.20570264765784%" stop-color="#f4f7f9" stop-opacity="1"></stop><stop offset="80.79429735234216%" stop-color="#f4f7f9" stop-opacity="1"></stop></linearGradient></defs><g transform="translate(1512, 0)"><path d="M0 631C-41.4 602.6 -82.9 574.2 -129.3 566.4C-175.7 558.7 -227.1 571.6 -269.4 559.5C-311.8 547.4 -345 510.4 -383.4 480.8C-421.9 451.3 -465.7 429.2 -493.3 393.4C-521 357.7 -532.6 308.2 -546.9 263.4C-561.2 218.6 -578.3 178.4 -592.8 135.3C-607.2 92.2 -619.1 46.1 -631 0L0 0Z" fill="#498ad8"></path></g><g transform="translate(0, 982)"><path d="M0 -631C41.5 -599.5 83 -568.1 127.3 -557.7C171.5 -547.2 218.6 -557.9 266.4 -553.2C314.2 -548.5 362.9 -528.6 393.4 -493.3C423.9 -458.1 436.3 -407.6 463.6 -369.7C491 -331.9 533.3 -306.6 561.3 -270.3C589.3 -234 603 -186.6 612.3 -139.7C621.5 -92.8 626.3 -46.4 631 0L0 0Z" fill="#498ad8"></path></g></svg>